OpenSim_Sub01_CSBaseline_RCS.mot
version=1
nRows=70
nColumns=11
inDegrees=no
endheader
time	Top_Thigh	Med_Thigh	Bot_Thigh	Top_Shank	2nd_Top_Shank	2nd_Bot_Shank	Bot_Shank	BNOx	BNOy	BNOZ
14.87000000	1288.70054729	1243.13044112	1164.61843929	961.89944991	1058.74880033	920.62814779	900.10033915	59.85237927	-51.41650350	98.76742797
14.88000000	1286.98340126	1243.73026282	1163.29272722	962.21118008	1058.91576330	920.47922428	899.88664001	56.56251913	-53.18050145	98.57864881
14.89000000	1285.24036048	1243.89583410	1161.97087640	962.30482364	1059.17744008	920.33065054	899.63788876	53.52102821	-55.05216382	100.04847267
14.90000000	1283.58583799	1243.44845041	1160.75003768	962.05265712	1059.48075533	920.19372377	899.38595317	50.87722943	-57.03817686	103.64794332
14.91000000	1282.13424682	1242.20940723	1159.72736192	961.32695706	1059.77263375	920.07974119	899.16270099	48.78044572	-59.14522683	109.84810451
14.92000000	1281	1240	1159	960	1060	920	899	47.38000000	-61.38000000	119.12000000
14.93000000	1280.26476347	1236.77638144	1158.63155735	958.00905417	1060.12328667	919.96171488	898.92003687	46.61378205	-63.73155276	131.20729735
14.94000000	1279.87921476	1233.03413323	1158.55145771	955.55135458	1060.15695792	919.95577034	898.90627399	45.57394905	-66.11842206	142.94415939
14.95000000	1279.76128432	1229.40369431	1158.65557940	952.88912789	1060.12898585	919.96896836	898.93249268	43.14122502	-68.44151498	150.43737275
14.96000000	1279.82890259	1226.51550359	1158.83980072	950.28460080	1060.06734251	919.98811092	898.97247424	38.19633399	-70.60173860	149.79372407
14.97000000	1280	1225.00000000	1159	948.00000000	1060	920	899	29.62000000	-72.50000000	137.12000000
14.98000000	1280.20358206	1225.29583360	1159.05624635	946.24217966	1059.94991965	919.99501922	898.99572722	16.95599058	-74.05758794	109.88732565
14.99000000	1280.41295449	1227.07449894	1159.02537207	944.99650389	1059.92001990	919.97787885	898.96781698	2.40024728	-75.27731793	71.02418012
15.00000000	1280.61249810	1229.81570167	1158.94840027	944.19296431	1059.90820847	919.95687080	898.93130630	-11.18824482	-76.18238714	24.82338099
15.01000000	1280.78659366	1232.99914748	1158.86635406	943.76155252	1059.91239305	919.94028698	898.90123224	-20.95050066	-76.79599277	-24.42225417
15.02000000	1280.91962197	1236.10454202	1158.82025654	943.63226014	1059.93048136	919.93641929	898.89263181	-24.02753518	-77.14133200	-72.41990777
15.03000000	1280.99596382	1238.61159097	1158.85113082	943.73507876	1059.96038111	919.95355966	898.92054205	-17.56036332	-77.24160202	-114.87676224
15.04000000	1281	1240.00000000	1159	944.00000000	1060	920	899	1.31000000	-77.12000000	-147.50000000
15.05000000	1280.92268825	1239.89034127	1159.28948060	944.36369925	1060.04663024	920.07977346	899.13984806	34.28081224	-76.80385362	-167.14910595
15.06000000	1280.78129414	1238.46665298	1159.66856277	944.78958700	1060.09510200	920.17987823	899.32415017	78.40242045	-76.33701250	-175.29277496
15.07000000	1280.59966017	1236.05383978	1160.06783005	945.24775757	1060.13962998	920.28305373	899.53077562	129.56344410	-75.76745673	-174.55200435
15.08000000	1280.40162886	1232.97680638	1160.41786600	945.70830522	1060.17442883	920.37203939	899.73759374	183.65250265	-75.14316641	-167.54779147
15.09000000	1280.21104271	1229.56045744	1160.64925416	946.14132426	1060.19371324	920.42957464	899.92247382	236.55821556	-74.51212163	-156.90113367
15.10000000	1280.05174423	1226.12969766	1160.69257809	946.51690896	1060.19169789	920.43839889	900.06328518	284.16920229	-73.92230251	-145.23302828
15.11000000	1279.94757595	1223.00943170	1160.47842134	946.80515363	1060.16259744	920.38125159	900.13789713	322.37408230	-73.42168913	-135.16447265
15.12000000	1279.92238037	1220.52456425	1159.93736746	946.97615255	1060.10062659	920.24087215	900.12417896	347.06147505	-73.05826159	-129.31646410
15.13000000	1280	1219	1159	947	1060	920	900	354.12000000	-72.88000000	-130.31000000
15.14000000	1280.20072730	1218.66990226	1157.63562134	946.86627261	1059.85856938	919.65691529	899.76055943	340.87296424	-72.91902279	-139.74025704
15.15000000	1280.53065452	1219.40546891	1155.96840912	946.64247634	1059.68873454	919.27206101	899.47037603	310.38242535	-73.14400180	-155.09912937
15.16000000	1280.99232386	1220.98715647	1154.16125984	946.41559947	1059.50653234	918.92142087	899.21129845	267.14512854	-73.50774718	-172.85269052
15.17000000	1281.58827751	1223.19542146	1152.37706996	946.27263029	1059.32799961	918.68097858	899.06517533	215.65781903	-73.96306909	-189.46701402
15.18000000	1282.32105768	1225.81072040	1150.77873597	946.30055707	1059.16917320	918.62671787	899.11385535	160.41724203	-74.46277772	-201.40817337
15.19000000	1283.19320655	1228.61350980	1149.52915434	946.58636812	1059.04608996	918.83462242	899.43918715	105.92014275	-74.95968322	-205.14224211
15.20000000	1284.20726633	1231.38424619	1148.79122156	947.21705171	1058.97478673	919.38067597	900.12301939	56.66326639	-75.40659576	-197.13529376
15.21000000	1285.36577921	1233.90338608	1148.72783409	948.27959614	1058.97130035	920.34086221	901.24720072	17.14335818	-75.75632550	-173.85340183
15.22000000	1286.66947935	1235.95783413	1149.49250872	949.85463756	1059.05072243	921.78520439	902.88784009	-8.31391879	-75.96322096	-131.99010851
15.23000000	1288.07751590	1237.48280214	1151.02302928	951.87671346	1059.20640382	923.64663500	904.98903300	-19.31778969	-76.01701256	-73.47073508
15.24000000	1289.50745304	1238.56180904	1153.04144658	954.13426263	1059.40995466	925.72099574	907.36286153	-19.41236804	-75.94281265	-5.45238197
15.25000000	1290.87504689	1239.28482193	1155.26043180	956.40937172	1059.63203983	927.79816788	909.81566806	-12.31284943	-75.76727192	64.68038177
15.26000000	1292.09605357	1239.74180789	1157.39265606	958.48412741	1059.84332421	929.66803265	912.15379494	-1.73442946	-75.51704105	129.54298705
15.27000000	1293.08624922	1240.02272138	1159.15085438	960.14066897	1060.01447944	931.12052331	914.18362601	8.60840536	-75.21876698	181.75258187
15.28000000	1293.78795136	1240.20079385	1160.33249054	961.23094438	1060.12514127	932.01458730	915.76657857	15.94214608	-74.89411048	216.20483696
15.29000000	1294.22234169	1240.29956656	1160.98678842	961.81432873	1060.18158114	932.41423824	916.92759431	20.28927053	-74.54991667	234.56574352
15.30000000	1294.42518271	1240.33339377	1161.20951846	961.98854714	1060.19499499	932.42140336	917.72184809	22.18919145	-74.19029147	239.75302078
15.31000000	1294.43223688	1240.31662979	1161.09645109	961.85132478	1060.17657877	932.13800987	918.20451476	22.18132157	-73.81934079	234.68438797
15.32000000	1294.27926670	1240.26362888	1160.74335677	961.50038678	1060.13752842	931.66598499	918.43076917	20.80507363	-73.44117056	222.27756432
15.33000000	1294.00203463	1240.18874535	1160.24600591	961.03345830	1060.08903990	931.10725595	918.45578617	18.59986036	-73.05988670	205.45026905
15.34000000	1293.63630316	1240.10633347	1159.70016898	960.54826448	1060.04230916	930.56374996	918.33474062	16.10509451	-72.67959512	187.12022140
15.35000000	1293.21783477	1240.03074753	1159.20161639	960.14253047	1060.00853213	930.13739425	918.12280737	13.86018881	-72.30440176	170.20514058
15.36000000	1292.78202388	1239.97593140	1158.84334326	959.91048457	1059.99842214	929.92689373	917.87436797	12.38929702	-71.93836048	157.54063315
15.37000000	1292.35579970	1239.94638947	1158.65451163	959.86592778	1060.01159181	929.95684056	917.62555819	11.86561633	-71.58432830	150.07371383
15.38000000	1291.95762621	1239.93718663	1158.60045056	959.94223373	1060.03655308	930.17771409	917.39426796	12.11138735	-71.24396533	146.86280552
15.39000000	1291.60559934	1239.94297737	1158.64371371	960.06927926	1060.06133525	930.53677140	917.19759395	12.93359173	-70.91887967	146.88421845
15.40000000	1291.31781501	1239.95841617	1158.74685478	960.17694117	1060.07396763	930.98126953	917.05263282	14.13921110	-70.61067939	149.11426283
15.41000000	1291.11236916	1239.97815752	1158.87242747	960.19509628	1060.06247952	931.45846557	916.97648123	15.53522710	-70.32097259	152.52924890
15.42000000	1291.00735772	1239.99685589	1158.98298544	960.05362141	1060.01490022	931.91561658	916.98623583	16.92862137	-70.05136735	156.10548688
15.43000000	1291.01723487	1240.00972330	1159.04521805	959.69266419	1059.92151489	932.30533348	917.09589741	18.14483241	-69.80310352	158.91641845
15.44000000	1291.12954014	1240.01609229	1159.05637966	959.12827997	1059.78928079	932.61979555	917.29658632	19.14570642	-69.57469949	160.75334766
15.45000000	1291.31974979	1240.01714221	1159.02742397	958.41054620	1059.63262769	932.86891672	917.56916783	19.95422797	-69.36345386	161.72932653
15.46000000	1291.56328318	1240.01406112	1158.96936930	957.58970079	1059.46602059	933.06269458	917.89445884	20.59366999	-69.16665949	161.95892480
15.47000000	1291.83555968	1240.00803710	1158.89323398	956.71598166	1059.30392449	933.21112672	918.25327624	21.08730543	-68.98160925	161.55671218
15.48000000	1292.11199865	1240.00025822	1158.81003633	955.83962671	1059.16080441	933.32421072	918.62643693	21.45840723	-68.80559599	160.63725841
15.49000000	1292.36801948	1239.99191254	1158.73079468	955.01087387	1059.05112535	933.41194417	918.99475782	21.73024833	-68.63591257	159.31513319
15.50000000	1292.57904151	1239.98418812	1158.66652734	954.27996105	1058.98935232	933.48432465	919.33905578	21.92610167	-68.46985184	157.70490626
15.51000000	1292.72048411	1239.97827304	1158.62825263	953.69712617	1058.98995033	933.55134976	919.64014774	22.06924020	-68.30470667	155.92114733
15.52000000	1292.76776666	1239.97535537	1158.62698889	953.31260714	1059.06738439	933.62301707	919.87885058	22.18293686	-68.13776990	154.07842614
15.53000000	1292.69630852	1239.97662317	1158.67375443	953.17664187	1059.23611949	933.70932418	920.03598119	22.29046458	-67.96633441	152.29131240
15.54000000	1292.48152905	1239.98326452	1158.77956758	953.33946829	1059.51062066	933.82026867	920.09235648	22.41509632	-67.78769305	150.67437584
15.55000000	1292.09884762	1239.99646747	1158.95544666	953.85132431	1059.90535290	933.96584812	920.02879335	22.58010501	-67.59913867	149.34218617
15.56000000	1291.53843944	1240.01607593	1159.20717500	954.74095233	1060.42603340	934.15553033	919.83344298	22.80576381	-67.39828570	148.38828507
